<svg width="30" height="30" viewBox="0 0 30 30" fill="none" xmlns="http://www.w3.org/2000/svg">
<rect x="0.5" y="0.5" width="29" height="29" rx="14.5" fill="#62677C"/>
<path fill-rule="evenodd" clip-rule="evenodd" d="M12.6924 7.26192L12.2625 6.59998C8.95274 7.82165 6.60027 11.004 6.60027 14.7331C6.60027 19.5168 10.4778 23.4008 15.2639 23.4008C18.9954 23.4008 22.1753 21.0402 23.4003 17.7329L22.735 17.3006C21.4614 18.5304 19.7175 19.2872 17.8112 19.2872C13.893 19.2872 10.7131 16.1057 10.7131 12.1859C10.7131 10.2747 11.4675 8.53875 12.6924 7.26192ZM11.0213 8.12098C10.3074 9.3094 9.90192 10.7006 9.90192 12.1859C9.90192 16.5534 13.4469 20.0984 17.8112 20.0984C19.2957 20.0984 20.6826 19.6879 21.8751 18.9741C20.4798 21.1473 18.0382 22.5896 15.2639 22.5896C10.9239 22.5896 7.41147 19.069 7.41147 14.7331C7.41147 11.958 8.84726 9.51707 11.0213 8.11936V8.12098ZM18.379 8.59148L18.0058 7.77947L16.9431 10.1133L14.6149 11.1735L16.9431 12.2338L18.0058 14.5684L19.0684 12.2338L21.4047 11.1735L19.0684 10.1133L18.379 8.59148ZM18.0058 9.74015L18.4518 10.7258L19.4415 11.1735L18.4518 11.6213L18.0058 12.6069L17.5596 11.6213L16.57 11.1735L17.5596 10.7258L18.0058 9.74015Z" fill="white"/>
<rect x="0.5" y="0.5" width="29" height="29" rx="14.5" stroke="#8F93A6"/>
</svg>
