<svg width="30" height="30" viewBox="0 0 30 30" fill="none" xmlns="http://www.w3.org/2000/svg">
<rect x="0.5" y="0.5" width="29" height="29" rx="14.5" fill="white"/>
<path fill-rule="evenodd" clip-rule="evenodd" d="M15.4581 25.6353V22.6189H14.5507V25.6353H15.4581ZM18.4162 21.8249L19.9227 24.4365L20.7121 23.9828L19.2058 21.3711L18.4162 21.8249ZM10.0768 24.4365L11.5833 21.8249L10.7937 21.3711L9.2874 23.9828L10.0768 24.4365ZM6.02047 20.7096L8.62497 19.2014L8.17125 18.4156L5.56674 19.9237L6.02047 20.7096ZM21.3745 19.2014L23.9881 20.7096L24.4419 19.9237L21.8283 18.4156L21.3745 19.2014ZM15.0044 9.42086C12.1459 9.42086 9.82265 11.7403 9.82265 14.597C9.82265 17.4537 12.1459 19.7731 15.0044 19.7731C17.8538 19.7731 20.1769 17.4537 20.1769 14.597C20.1769 11.7403 17.8538 9.42086 15.0044 9.42086ZM15.0044 10.3283C17.3547 10.3283 19.2694 12.2412 19.2694 14.597C19.2694 16.9527 17.3547 18.8657 15.0044 18.8657C12.645 18.8657 10.7301 16.9527 10.7301 14.597C10.7301 12.2412 12.645 10.3283 15.0044 10.3283ZM22.6179 15.4509H25.6398V14.5434H22.6179V15.4509ZM4.35976 15.4509H7.38165V14.5434H4.35976V15.4509ZM21.8283 11.5797L24.4419 10.0715L23.9881 9.28565L21.3745 10.7938L21.8283 11.5797ZM5.56674 10.0715L8.17125 11.5797L8.62497 10.7938L6.02047 9.28565L5.56674 10.0715ZM19.2058 8.62412L20.7121 6.01246L19.9227 5.55873L18.4162 8.17039L19.2058 8.62412ZM9.2874 6.01246L10.7937 8.62412L11.5833 8.17039L10.0768 5.55873L9.2874 6.01246ZM15.4581 7.37637V4.35999H14.5507V7.37637L15.4581 7.37637Z" fill="#2E313D"/>
<rect x="0.5" y="0.5" width="29" height="29" rx="14.5" stroke="#62677C"/>
</svg>
